<?xml version="1.0" encoding="UTF-8" standalone="no"?>
<svg
   xmlns:dc="http://purl.org/dc/elements/1.1/"
   xmlns:cc="http://creativecommons.org/ns#"
   xmlns:rdf="http://www.w3.org/1999/02/22-rdf-syntax-ns#"
   xmlns:svg="http://www.w3.org/2000/svg"
   xmlns="http://www.w3.org/2000/svg"
   viewBox="0 0 512 512"
   height="512"
   width="512"
   id="svg96"
   version="1.1">
  <metadata
     id="metadata102">
    <rdf:RDF>
      <cc:Work
         rdf:about="">
        <dc:format>image/svg+xml</dc:format>
        <dc:type
           rdf:resource="http://purl.org/dc/dcmitype/StillImage" />
        <dc:title></dc:title>
      </cc:Work>
    </rdf:RDF>
  </metadata>
  <defs
     id="defs100" />
  <path
     id="path106"
     d="m 79.501804,510.8663 c -3.299008,-0.56614 -6.194699,-1.22586 -6.434869,-1.46603 -0.24017,-0.24017 9.884018,-10.89098 22.498196,-23.66847 24.148379,-24.46103 28.178599,-29.70443 30.892529,-40.1919 6.59278,-25.47658 -8.15953,-50.01328 -33.688503,-56.03226 -13.212768,-3.11517 -28.335916,-0.99002 -39.267454,5.51799 -3.854255,2.2946 -12.975608,10.70045 -26.861989,24.75487 C 12.266434,434.32771 5.3834255,440.64963 4.8860369,439.76084 3.3717205,437.05491 1.9149033,421.60386 2.5227098,414.69532 5.3289779,382.79829 22.791026,355.62007 50.135823,340.58949 63.254961,333.3783 76.891939,330 92.881717,330 c 12.380673,0 19.501013,1.08343 30.301893,4.61074 7.12728,2.3276 7.89675,2.39906 10.62741,0.98699 4.39576,-2.27314 201.15823,-200.64434 201.88668,-203.53731 0.33785,-1.34177 0.0656,-4.26677 -0.60507,-6.5 -5.72664,-19.06966 -6.92969,-30.567949 -4.72288,-45.139397 C 336.92539,37.134452 371.16327,5.4509724 414.72549,2.3588378 423.10396,1.7641175 441,3.4319047 441,4.8074399 441,5.137915 430.7625,15.778935 418.25,28.454152 c -23.95628,24.26781 -27.99737,29.532553 -30.70766,40.005947 -6.59278,25.476579 8.15953,50.013281 33.6885,56.032261 13.21277,3.11517 28.33592,0.99002 39.26746,-5.51799 3.85425,-2.2946 12.97561,-10.70045 26.86199,-24.754874 14.37328,-14.54721 21.25628,-20.869123 21.75367,-19.980339 1.51432,2.705934 2.97114,18.156985 2.36333,25.065527 -2.80627,31.897026 -20.26832,59.075246 -47.61311,74.105826 C 450.74504,180.6217 437.10806,184 421.11828,184 c -12.38301,0 -19.501,-1.08341 -30.30972,-4.61335 -6.64239,-2.16929 -8.00631,-2.33286 -10,-1.19927 C 379.53885,178.90932 333.3875,224.75804 278.25,280.07343 186.97489,371.64301 178,380.93411 178,383.85555 c 0,1.76478 0.62327,4.70039 1.38505,6.52358 4.58874,10.98239 6.37958,29.18499 4.25016,43.19985 -6.7658,44.52953 -42.50724,76.50696 -87.13521,77.95883 -6.05,0.19682 -13.699188,-0.10536 -16.998196,-0.67151 z"
     style="fill:#000000" />
</svg>
